<?xml version="1.0" standalone="no"?>
<!DOCTYPE svg PUBLIC "-//W3C//DTD SVG 20010904//EN"
 "http://www.w3.org/TR/2001/REC-SVG-20010904/DTD/svg10.dtd">
<svg version="1.0" xmlns="http://www.w3.org/2000/svg"
 width="318.000000pt" height="159.000000pt" viewBox="0 0 318.000000 159.000000"
 preserveAspectRatio="xMidYMid meet">

<g transform="translate(0.000000,159.000000) scale(0.100000,-0.100000)"
fill="#000000" stroke="none">
<path d="M0 795 l0 -795 1590 0 1590 0 0 795 0 795 -1590 0 -1590 0 0 -795z
m1823 -229 c84 -14 208 -27 277 -30 206 -10 256 -17 234 -30 -12 -7 -101 -13
-227 -16 -169 -4 -209 -8 -217 -20 -11 -18 -75 -22 -352 -22 -174 0 -212 3
-243 17 -26 13 -47 16 -78 11 -75 -12 -98 -13 -104 -3 -3 6 -2 8 3 5 5 -3 18
-2 29 3 12 4 -19 8 -81 8 -166 1 -347 13 -331 22 8 5 126 15 263 23 137 8 281
20 319 25 163 25 194 28 273 30 46 0 151 -10 235 -23z m562 -56 c3 -5 2 -10
-4 -10 -5 0 -13 5 -16 10 -3 6 -2 10 4 10 5 0 13 -4 16 -10z m-130 -80 c4 -6
-6 -7 -25 -4 -19 4 -30 2 -30 -5 0 -6 10 -12 23 -12 12 -1 4 -5 -18 -10 -59
-12 -175 -11 -175 1 0 7 13 8 35 4 22 -4 35 -2 35 4 0 6 16 9 35 8 36 -3 56 8
33 17 -7 3 8 6 34 6 26 1 50 -3 53 -9z m-757 -7 c-16 -2 -40 -2 -55 0 -16 2
-3 4 27 4 30 0 43 -2 28 -4z m232 -2 c-42 -13 -203 -14 -195 -2 4 7 48 11 113
10 67 0 97 -4 82 -8z m373 -72 l-28 -19 40 5 c28 4 36 2 25 -5 -20 -13 -91
-12 -110 1 -12 8 -9 10 13 6 24 -4 28 -2 24 14 -4 15 1 18 29 17 l35 -1 -28
-18z"/>
</g>
</svg>
